<svg width="24" height="24" viewBox="0 0 24 24" fill="none" xmlns="http://www.w3.org/2000/svg">
    <path d="M19.14 12.94C19.16 12.79 19.17 12.64 19.17 12.49C19.17 12.33 19.16 12.18 19.14 12.03L21.5 10.19C21.71 10.02 21.77 9.72 21.63 9.48L19.39 5.6C19.25 5.36 18.97 5.27 18.72 5.37L15.94 6.49C15.36 6.05 14.73 5.68 14.05 5.4L13.63 2.44C13.59 2.17 13.36 1.98 13.09 1.98H8.60003C8.33003 1.98 8.10003 2.17 8.06003 2.44L7.64003 5.4C6.96003 5.68 6.33003 6.05 5.75003 6.49L2.97003 5.37C2.72003 5.27 2.43003 5.36 2.30003 5.6L0.0600282 9.48C-0.0799718 9.72 -0.0199718 10.02 0.190028 10.19L2.55003 12.03C2.53003 12.18 2.52003 12.33 2.52003 12.49C2.52003 12.64 2.53003 12.79 2.55003 12.94L0.190028 14.78C-0.0199718 14.95 -0.0799718 15.25 0.0600282 15.49L2.30003 19.37C2.44003 19.61 2.72003 19.7 2.97003 19.6L5.75003 18.48C6.33003 18.92 6.96003 19.29 7.64003 19.57L8.06003 22.53C8.10003 22.8 8.33003 22.99 8.60003 22.99H13.09C13.36 22.99 13.59 22.8 13.63 22.53L14.05 19.57C14.73 19.29 15.36 18.92 15.94 18.48L18.72 19.6C18.97 19.7 19.25 19.61 19.39 19.37L21.63 15.49C21.77 15.25 21.71 14.95 21.5 14.78L19.14 12.94ZM10.85 15.99C8.92003 15.99 7.35003 14.42 7.35003 12.49C7.35003 10.56 8.92003 8.99 10.85 8.99C12.78 8.99 14.35 10.56 14.35 12.49C14.35 14.42 12.78 15.99 10.85 15.99Z"
          fill="white"/>
</svg>